<svg width="71" height="64" viewBox="0 0 71 64" fill="none" xmlns="http://www.w3.org/2000/svg">
<path d="M28.4 45.7143L46.8245 32L28.4 18.2857V45.7143ZM69.438 9.92C69.8995 12.0686 70.219 14.9486 70.432 18.6057C70.6805 22.2629 70.787 25.4171 70.787 28.16L71 32C71 42.0114 70.432 49.3714 69.438 54.08C68.5505 58.1943 66.4915 60.8457 63.2965 61.9886C61.628 62.5829 58.575 62.9943 53.889 63.2686C49.274 63.5886 45.0495 63.7257 41.1445 63.7257L35.5 64C20.6255 64 11.36 63.2686 7.7035 61.9886C4.5085 60.8457 2.4495 58.1943 1.562 54.08C1.1005 51.9314 0.781 49.0514 0.568 45.3943C0.3195 41.7371 0.213 38.5829 0.213 35.84L0 32C0 21.9886 0.568 14.6286 1.562 9.92C2.4495 5.80572 4.5085 3.15429 7.7035 2.01143C9.372 1.41714 12.425 1.00571 17.111 0.731428C21.726 0.411428 25.9505 0.274285 29.8555 0.274285L35.5 0C50.3745 0 59.64 0.731429 63.2965 2.01143C66.4915 3.15429 68.5505 5.80572 69.438 9.92Z" fill="#952B95"/>
</svg>
