<svg width="29" height="29" viewBox="0 0 29 29" fill="none" xmlns="http://www.w3.org/2000/svg">
<path d="M14.43 0.333496C6.45667 0.333496 0 6.64283 0 14.4168C0 22.1908 6.45667 28.5002 14.43 28.5002C22.4178 28.5002 28.8889 22.1908 28.8889 14.4168C28.8889 6.64283 22.4178 0.333496 14.43 0.333496ZM25.2344 10.4172L17.9978 9.81158L15.1089 3.17833C19.7456 3.44591 23.6456 6.37525 25.2344 10.4172ZM17.9111 19.2333L14.4444 17.2053L10.9922 19.2333L11.9022 15.4027L8.85444 12.8254L12.87 12.4874L14.4444 8.868L16.0189 12.4733L20.0344 12.8113L16.9867 15.3886L17.9111 19.2333ZM13.78 3.17833L10.8911 9.82566L3.64 10.4312C5.22889 6.37525 9.12889 3.43183 13.78 3.17833ZM2.88889 14.4168C2.88889 13.5155 3.00444 12.6423 3.22111 11.7973L8.69556 16.4167L7.09222 23.1062C5.77661 22.0507 4.7173 20.7239 3.9905 19.2214C3.2637 17.7189 2.88747 16.078 2.88889 14.4168ZM8.43556 24.0217L14.4444 20.4867L20.4533 24.0076C18.6444 25.1014 16.5585 25.6818 14.43 25.6835C12.2344 25.6835 10.1833 25.0638 8.43556 24.0217ZM21.7967 23.1062L20.1933 16.4167L25.6678 11.7973C25.87 12.6282 26 13.5155 26 14.4168C26 17.9095 24.3533 21.036 21.7967 23.1062Z" fill="#FFB800"/>
</svg>
