<svg width="39" height="41" viewBox="0 0 39 41" fill="none" xmlns="http://www.w3.org/2000/svg">
<path d="M3.03333 41L16.6833 26.65C17.7667 27.5611 19.0125 28.2824 20.4208 28.8139C21.8292 29.3454 23.3278 29.6111 24.9167 29.6111C28.8528 29.6111 32.1837 28.1776 34.9093 25.3107C37.635 22.4437 38.9986 18.942 39 14.8056C39 10.6676 37.6364 7.16589 34.9093 4.30044C32.1822 1.435 28.8513 0.00151852 24.9167 0C20.9806 0 17.6497 1.43348 14.924 4.30044C12.1983 7.16741 10.8348 10.6691 10.8333 14.8056C10.8333 16.4759 11.0861 18.0514 11.5917 19.5319C12.0972 21.0125 12.7833 22.3222 13.65 23.4611L0 37.8111L3.03333 41ZM24.9167 25.0556C22.2083 25.0556 19.9059 24.0586 18.0093 22.0648C16.1128 20.071 15.1652 17.6513 15.1667 14.8056C15.1667 11.9583 16.1149 9.53781 18.0115 7.544C19.9081 5.55018 22.2098 4.55404 24.9167 4.55556C27.625 4.55556 29.9274 5.55246 31.824 7.54628C33.7206 9.54009 34.6681 11.9599 34.6667 14.8056C34.6667 17.6528 33.7184 20.0733 31.8218 22.0671C29.9253 24.0609 27.6236 25.0571 24.9167 25.0556Z" fill="#952B95"/>
</svg>
