<svg width="73" height="74" viewBox="0 0 73 74" fill="none" xmlns="http://www.w3.org/2000/svg">
<path d="M62.3618 10.7672C58.9987 7.34072 54.9928 4.62398 50.5778 2.7754C46.1628 0.926825 41.427 -0.0165764 36.6467 0.000220407C16.6176 0.000220407 0.293468 16.4652 0.293468 36.6671C0.293468 43.1421 1.9809 49.4321 5.13568 54.9821L0 74L19.2588 68.894C24.5779 71.817 30.5573 73.371 36.6467 73.371C56.6759 73.371 73 56.9061 73 36.7041C73 26.8991 69.2216 17.6862 62.3618 10.7672ZM36.6467 67.155C31.2176 67.155 25.8985 65.675 21.2397 62.9L20.1392 62.234L8.69397 65.268L11.7387 54.0201L11.005 52.8731C7.98872 48.0149 6.3871 42.3993 6.38291 36.6671C6.38291 19.8692 19.9558 6.1792 36.61 6.1792C44.6804 6.1792 52.2739 9.36119 57.9598 15.1332C60.7752 17.9598 63.0063 21.322 64.5239 25.0248C66.0415 28.7276 66.8153 32.6974 66.8005 36.7041C66.8739 53.5021 53.301 67.155 36.6467 67.155ZM53.2276 44.3631C52.3105 43.9191 47.8352 41.6991 47.0281 41.3661C46.1844 41.0701 45.5975 40.9221 44.9739 41.8101C44.3503 42.7351 42.6261 44.8071 42.1126 45.3991C41.599 46.0281 41.0487 46.1021 40.1317 45.6211C39.2146 45.1771 36.2799 44.1781 32.8317 41.0701C30.1171 38.6281 28.3196 35.6311 27.7693 34.7061C27.2558 33.7811 27.696 33.3001 28.1729 32.8191C28.5764 32.4121 29.0899 31.7461 29.5301 31.2281C29.9704 30.7101 30.1538 30.3031 30.4472 29.7111C30.7407 29.0821 30.594 28.5641 30.3739 28.1201C30.1538 27.6761 28.3196 23.1622 27.5859 21.3122C26.8523 19.5362 26.0819 19.7582 25.5317 19.7212H23.7709C23.1472 19.7212 22.1935 19.9432 21.3497 20.8682C20.5427 21.7932 18.195 24.0131 18.195 28.5271C18.195 33.0411 21.4598 37.4071 21.9 37.9991C22.3402 38.6281 28.3196 47.8781 37.4171 51.8371C39.5814 52.7991 41.2688 53.3541 42.5894 53.7611C44.7538 54.4641 46.7347 54.3531 48.3121 54.1311C50.0729 53.8721 53.7045 51.9111 54.4382 49.7651C55.2085 47.6191 55.2085 45.8061 54.9518 45.3991C54.695 44.9921 54.1447 44.8071 53.2276 44.3631Z" fill="#952B95"/>
</svg>
