<svg width="66" height="66" viewBox="0 0 66 66" fill="none" xmlns="http://www.w3.org/2000/svg">
<path d="M19.14 0H46.86C57.42 0 66 8.58 66 19.14V46.86C66 51.9362 63.9835 56.8046 60.394 60.394C56.8046 63.9835 51.9362 66 46.86 66H19.14C8.58 66 0 57.42 0 46.86V19.14C0 14.0638 2.01653 9.19542 5.60598 5.60598C9.19542 2.01653 14.0638 0 19.14 0ZM18.48 6.6C15.3292 6.6 12.3075 7.85164 10.0796 10.0796C7.85164 12.3075 6.6 15.3292 6.6 18.48V47.52C6.6 54.087 11.913 59.4 18.48 59.4H47.52C50.6708 59.4 53.6925 58.1484 55.9204 55.9204C58.1484 53.6925 59.4 50.6708 59.4 47.52V18.48C59.4 11.913 54.087 6.6 47.52 6.6H18.48ZM50.325 11.55C51.419 11.55 52.4682 11.9846 53.2418 12.7582C54.0154 13.5318 54.45 14.581 54.45 15.675C54.45 16.769 54.0154 17.8182 53.2418 18.5918C52.4682 19.3654 51.419 19.8 50.325 19.8C49.231 19.8 48.1818 19.3654 47.4082 18.5918C46.6346 17.8182 46.2 16.769 46.2 15.675C46.2 14.581 46.6346 13.5318 47.4082 12.7582C48.1818 11.9846 49.231 11.55 50.325 11.55ZM33 16.5C37.3761 16.5 41.5729 18.2384 44.6673 21.3327C47.7616 24.4271 49.5 28.6239 49.5 33C49.5 37.3761 47.7616 41.5729 44.6673 44.6673C41.5729 47.7616 37.3761 49.5 33 49.5C28.6239 49.5 24.4271 47.7616 21.3327 44.6673C18.2384 41.5729 16.5 37.3761 16.5 33C16.5 28.6239 18.2384 24.4271 21.3327 21.3327C24.4271 18.2384 28.6239 16.5 33 16.5ZM33 23.1C30.3744 23.1 27.8563 24.143 25.9996 25.9996C24.143 27.8563 23.1 30.3744 23.1 33C23.1 35.6256 24.143 38.1437 25.9996 40.0004C27.8563 41.857 30.3744 42.9 33 42.9C35.6256 42.9 38.1437 41.857 40.0004 40.0004C41.857 38.1437 42.9 35.6256 42.9 33C42.9 30.3744 41.857 27.8563 40.0004 25.9996C38.1437 24.143 35.6256 23.1 33 23.1Z" fill="#952B95"/>
</svg>
