<svg width="61" height="48" viewBox="0 0 61 48" fill="none" xmlns="http://www.w3.org/2000/svg">
<path d="M1.6 1.6V0C1.17565 0 0.768688 0.168571 0.468629 0.468629C0.168571 0.768688 0 1.17565 0 1.6H1.6ZM59.2 1.6H60.8C60.8 1.17565 60.6314 0.768688 60.3314 0.468629C60.0313 0.168571 59.6243 0 59.2 0V1.6ZM1.6 3.2H59.2V0H1.6V3.2ZM57.6 1.6V40H60.8V1.6H57.6ZM52.8 44.8H8V48H52.8V44.8ZM3.2 40V1.6H0V40H3.2ZM8 44.8C6.72696 44.8 5.50606 44.2943 4.60589 43.3941C3.70571 42.4939 3.2 41.273 3.2 40H0C0 42.1217 0.842855 44.1566 2.34315 45.6569C3.84344 47.1571 5.87827 48 8 48V44.8ZM57.6 40C57.6 41.273 57.0943 42.4939 56.1941 43.3941C55.2939 44.2943 54.073 44.8 52.8 44.8V48C54.9217 48 56.9566 47.1571 58.4569 45.6569C59.9571 44.1566 60.8 42.1217 60.8 40H57.6Z" fill="#952B95"/>
<path d="M1.6001 1.6001L30.4001 30.4001L59.2001 1.6001" fill="#952B95"/>
<path d="M1.6001 1.6001L30.4001 30.4001L59.2001 1.6001" stroke="#952B95" stroke-linecap="round" stroke-linejoin="round"/>
</svg>
